<!-- Generated by IcoMoon.io -->
<svg version="1.1" xmlns="http://www.w3.org/2000/svg" width="26" height="32" viewBox="0 0 26 32">
<title>add</title>
<path d="M3.8 31.8c-1 0-1.96-0.4-2.68-1.12s-1.12-1.68-1.12-2.68v-24c0-1 0.4-1.96 1.12-2.68 0.68-0.72 1.68-1.12 2.68-1.12h12c0.2 0 0.4 0.080 0.56 0.24l9 9c0.16 0.16 0.24 0.36 0.24 0.56v18c0 1-0.4 1.96-1.12 2.68s-1.68 1.12-2.68 1.12h-18c0 0 0 0 0 0zM3.8 1.8c-0.6 0-1.16 0.24-1.56 0.64-0.4 0.44-0.64 0.96-0.64 1.56v24c0 0.6 0.24 1.16 0.64 1.56s0.96 0.64 1.56 0.64c0 0 0 0 0 0h18c0.6 0 1.16-0.24 1.56-0.64s0.64-0.96 0.64-1.56v-17.68l-8.52-8.52h-11.68z"></path>
<path d="M12.8 25.8c-0.44 0-0.8-0.36-0.8-0.8v-3.68h-3.68c-0.44 0-0.8-0.36-0.8-0.8s0.36-0.8 0.8-0.8h3.68v-3.72c0-0.44 0.36-0.8 0.8-0.8s0.8 0.36 0.8 0.8v3.68h3.68c0.44 0 0.8 0.36 0.8 0.8s-0.36 0.8-0.8 0.8h-3.68v3.68c0 0.48-0.36 0.84-0.8 0.84zM24.8 10.8h-9c-0.44 0-0.8-0.36-0.8-0.8v-9c0-0.44 0.36-0.8 0.8-0.8s0.8 0.36 0.8 0.8v8.2h8.2c0.44 0 0.8 0.36 0.8 0.8s-0.36 0.8-0.8 0.8z"></path>
</svg>
