<!-- Generated by IcoMoon.io -->
<svg version="1.1" xmlns="http://www.w3.org/2000/svg" width="32" height="32" viewBox="0 0 32 32">
<title>bearbeiten</title>
<path d="M4 31.8c-1 0-1.96-0.4-2.68-1.12s-1.12-1.68-1.12-2.68v-21c0-1 0.4-1.96 1.12-2.68 0.68-0.72 1.68-1.12 2.68-1.12h10.48c0.44 0 0.8 0.36 0.8 0.8s-0.36 0.8-0.8 0.8h-10.48c-0.6 0-1.16 0.24-1.56 0.64s-0.64 0.96-0.64 1.56v21c0 0.6 0.24 1.16 0.64 1.56s0.96 0.64 1.56 0.64c0 0 0 0 0 0h21c0.6 0 1.16-0.24 1.56-0.64s0.64-0.96 0.64-1.56v-10.48c0-0.44 0.36-0.8 0.8-0.8s0.8 0.36 0.8 0.8v10.48c0 1-0.4 1.96-1.12 2.68s-1.68 1.12-2.68 1.12h-21c0 0 0 0 0 0z"></path>
<path d="M10 22.8c-0.2 0-0.4-0.080-0.56-0.24-0.2-0.2-0.28-0.48-0.2-0.76l1.52-6c0.040-0.16 0.12-0.28 0.2-0.36l14.24-14.24c0.72-0.76 1.72-1.2 2.8-1.2s2.080 0.4 2.8 1.16c0.76 0.76 1.16 1.76 1.16 2.8 0 1.080-0.4 2.080-1.16 2.8l-14.24 14.32c-0.12 0.12-0.24 0.16-0.36 0.2l-6 1.52c-0.080 0-0.12 0-0.2 0zM12.24 16.4l-1.12 4.48 4.48-1.12 14.080-14.080c0.44-0.44 0.68-1.040 0.68-1.68s-0.24-1.24-0.68-1.68c-0.44-0.44-1.040-0.72-1.68-0.72s-1.24 0.24-1.68 0.68c0 0 0 0 0 0l-14.080 14.12zM25.76 1.76v0 0z"></path>
</svg>
