<!-- Generated by IcoMoon.io -->
<svg version="1.1" xmlns="http://www.w3.org/2000/svg" width="32" height="32" viewBox="0 0 32 32">
<title>begleichen</title>
<path d="M21.744 32h-18.051c-2.051 0-3.692-1.641-3.692-3.692v-24.615c0-2.051 1.641-3.692 3.692-3.692h9.969c1.231 0 2.421 0.492 3.282 1.395l7.262 7.631c0.82 0.862 1.231 1.928 1.231 3.118v5.908c0 0.451-0.369 0.82-0.82 0.82s-0.82-0.369-0.82-0.82v-5.908c0-0.738-0.287-1.436-0.779-1.969l-7.262-7.631c-0.533-0.574-1.313-0.903-2.092-0.903h-9.969c-1.149 0-2.051 0.903-2.051 2.051v24.615c0 1.149 0.903 2.051 2.051 2.051h18.051c1.149 0 2.051-0.903 2.051-2.051v-2.462c0-0.451 0.369-0.82 0.82-0.82s0.82 0.369 0.82 0.82v2.462c0 2.051-1.641 3.692-3.692 3.692z"></path>
<path d="M21.333 25.682c-0.328 0-0.615-0.123-0.862-0.369l-2.995-2.995c-0.328-0.328-0.328-0.82 0-1.149s0.82-0.328 1.149 0l2.708 2.708 8.862-8.862c0.328-0.328 0.82-0.328 1.149 0s0.328 0.821 0 1.149l-9.149 9.149c-0.246 0.246-0.533 0.369-0.862 0.369zM23.795 12.103h-8.82c-1.354 0-2.462-1.108-2.462-2.462v-8.615c0-0.451 0.369-0.821 0.82-0.821s0.82 0.369 0.82 0.821v8.615c0 0.451 0.369 0.821 0.82 0.821h8.82c0.451 0 0.82 0.369 0.82 0.82s-0.369 0.82-0.82 0.82z"></path>
</svg>
