<!-- Generated by IcoMoon.io -->
<svg version="1.1" xmlns="http://www.w3.org/2000/svg" width="39" height="32" viewBox="0 0 39 32">
<title>camera</title>
<path d="M34.578 31.911c0 0 0 0 0 0h-30.044c-1.111 0-2.222-0.444-2.978-1.244-0.8-0.8-1.244-1.867-1.244-2.978v-18.356c0-1.111 0.444-2.178 1.244-2.978s1.867-1.244 2.978-1.244c0 0 0 0 0 0h6.178l3.067-4.622c0.178-0.267 0.444-0.4 0.756-0.4h10c0.311 0 0.578 0.133 0.756 0.4l3.067 4.622h6.178c1.111 0 2.222 0.444 2.978 1.244 0.8 0.8 1.244 1.867 1.244 2.978v18.311c0 1.111-0.444 2.178-1.244 2.978-0.756 0.8-1.822 1.289-2.933 1.289zM4.533 6.889c-0.622 0-1.289 0.267-1.733 0.711s-0.711 1.067-0.711 1.733v18.311c0 0.667 0.267 1.244 0.711 1.733 0.444 0.444 1.067 0.711 1.733 0.711h30c0 0 0 0 0 0 0.622 0 1.289-0.267 1.733-0.711s0.711-1.067 0.711-1.733v-18.311c0-0.667-0.267-1.289-0.711-1.733s-1.067-0.711-1.733-0.711h-6.667c-0.311 0-0.578-0.133-0.756-0.4l-3.022-4.622h-9.067l-3.067 4.622c-0.178 0.267-0.444 0.4-0.756 0.4h-6.667c0 0 0 0 0 0z"></path>
<path d="M19.556 25.244c-4.178 0-7.556-3.378-7.556-7.556s3.378-7.556 7.556-7.556 7.556 3.378 7.556 7.556-3.378 7.556-7.556 7.556zM19.556 11.911c-3.2 0-5.778 2.578-5.778 5.778s2.578 5.778 5.778 5.778c3.2 0 5.778-2.578 5.778-5.778s-2.578-5.778-5.778-5.778z"></path>
</svg>
