<!-- Generated by IcoMoon.io -->
<svg version="1.1" xmlns="http://www.w3.org/2000/svg" width="29" height="32" viewBox="0 0 29 32">
<title>delete</title>
<path d="M6.88 31.8c-1 0-1.96-0.4-2.68-1.12s-1.12-1.68-1.12-2.68v-20.2h-2.2c-0.44 0-0.8-0.36-0.8-0.8s0.36-0.8 0.8-0.8h6.72v-2.2c0-1 0.4-1.96 1.12-2.68s1.68-1.12 2.68-1.12h6c0 0 0 0 0 0 2.080 0 3.8 1.72 3.8 3.8v2.2h6.72c0.44 0 0.8 0.36 0.8 0.8s-0.36 0.8-0.8 0.8h-2.2v20.2c0 1-0.4 1.96-1.12 2.68s-1.68 1.12-2.68 1.12h-15.040c0 0 0 0 0 0zM4.72 7.8v20.2c0 0.6 0.24 1.16 0.64 1.56s0.96 0.64 1.56 0.64c0 0 0 0 0 0h15c0.6 0 1.16-0.24 1.56-0.64s0.64-0.96 0.64-1.56v-20.2h-19.4zM9.2 6.2h10.4v-2.2c0-1.2-1-2.2-2.2-2.2 0 0 0 0 0 0h-6c-0.6 0-1.16 0.24-1.56 0.64s-0.64 0.96-0.64 1.56v2.2zM18 24.8c-0.44 0-0.8-0.36-0.8-0.8v-11.2c0-0.44 0.36-0.8 0.8-0.8s0.8 0.36 0.8 0.8v11.2c0 0.44-0.36 0.8-0.8 0.8zM10.4 24.8c-0.44 0-0.8-0.36-0.8-0.8v-11.2c0-0.44 0.36-0.8 0.8-0.8s0.8 0.36 0.8 0.8v11.2c0 0.44-0.36 0.8-0.8 0.8z"></path>
</svg>
