<!-- Generated by IcoMoon.io -->
<svg version="1.1" xmlns="http://www.w3.org/2000/svg" width="31" height="32" viewBox="0 0 31 32">
<title>export_android</title>
<path d="M24.32 22.8c-0.2 0-0.4-0.080-0.56-0.24-0.32-0.32-0.32-0.8 0-1.12l4.6-4.64h-17.56c-0.44 0-0.8-0.36-0.8-0.8s0.36-0.8 0.8-0.8h17.56l-4.64-4.64c-0.32-0.32-0.32-0.8 0-1.12s0.8-0.32 1.12 0l6 6c0 0 0 0 0 0v0c0 0 0 0 0 0 0.080 0.080 0.12 0.16 0.16 0.24s0.080 0.2 0.080 0.32-0.040 0.2-0.080 0.32c-0.040 0.080-0.080 0.16-0.16 0.24 0 0 0 0 0 0v0c0 0 0 0 0 0l-6 6c-0.12 0.16-0.32 0.24-0.52 0.24z"></path>
<path d="M17.6 31.8h-14c-2 0-3.6-1.6-3.6-3.6v-24.6c0-2 1.6-3.6 3.6-3.6h14c2 0 3.6 1.6 3.6 3.6v5.6c0 0.44-0.36 0.8-0.8 0.8s-0.8-0.36-0.8-0.8v-5.6c0-1.12-0.88-2-2-2h-14c-1.12 0-2 0.88-2 2v24.6c0 1.12 0.88 2 2 2h14c1.12 0 2-0.88 2-2v-5.6c0-0.44 0.36-0.8 0.8-0.8s0.8 0.36 0.8 0.8v5.6c0 2-1.6 3.6-3.6 3.6z"></path>
</svg>
