<!-- Generated by IcoMoon.io -->
<svg version="1.1" xmlns="http://www.w3.org/2000/svg" width="32" height="32" viewBox="0 0 32 32">
<title>export_ios</title>
<path d="M27.689 31.911c0 0 0 0 0 0h-23.333c-1.111 0-2.222-0.444-2.978-1.244-0.8-0.8-1.244-1.867-1.244-2.978v-6.667c0-0.489 0.4-0.889 0.889-0.889s0.889 0.4 0.889 0.889v6.667c0 0.667 0.267 1.244 0.711 1.733 0.444 0.444 1.067 0.711 1.733 0.711h23.333c0 0 0 0 0 0 0.622 0 1.289-0.267 1.733-0.711s0.711-1.067 0.711-1.733v-6.667c0-0.489 0.4-0.889 0.889-0.889s0.889 0.4 0.889 0.889v6.667c0 1.111-0.444 2.178-1.244 2.978-0.8 0.756-1.867 1.244-2.978 1.244zM16 21.867c0 0 0 0.044 0 0 0 0 0 0 0 0s0 0 0 0c-0.133 0-0.222-0.044-0.356-0.089-0.089-0.044-0.178-0.089-0.267-0.178v0c0 0 0 0 0 0s0 0 0 0v0c0 0 0 0 0 0l-8.356-8.311c-0.356-0.356-0.356-0.889 0-1.244s0.889-0.356 1.244 0l6.844 6.8v-17.867c0-0.489 0.4-0.889 0.889-0.889s0.889 0.4 0.889 0.889v17.867l6.8-6.8c0.356-0.356 0.889-0.356 1.244 0s0.356 0.889 0 1.244l-8.311 8.356c0 0 0 0 0 0v0c0 0 0 0 0 0v0c0 0 0 0 0 0-0.089 0.089-0.178 0.133-0.267 0.178-0.133 0.044-0.222 0.044-0.356 0.044 0 0 0 0 0 0s0 0 0 0c0 0.044 0 0 0 0z"></path>
</svg>
