<!-- Generated by IcoMoon.io -->
<svg version="1.1" xmlns="http://www.w3.org/2000/svg" width="32" height="32" viewBox="0 0 32 32">
<title>filter</title>
<path d="M12.62 31.775c-0.496 0-0.901-0.406-0.901-0.901v-4.282h-10.817c-0.496 0-0.901-0.406-0.901-0.901s0.406-0.901 0.901-0.901h10.817v-4.056c0-0.496 0.406-0.901 0.901-0.901s0.901 0.406 0.901 0.901v10.141c0 0.496-0.406 0.901-0.901 0.901zM31.459 26.592h-15.234c-0.496 0-0.901-0.406-0.901-0.901s0.406-0.901 0.901-0.901h15.234c0.496 0 0.901 0.406 0.901 0.901s-0.406 0.901-0.901 0.901zM19.831 21.859c-0.496 0-0.901-0.406-0.901-0.901v-10.141c0-0.496 0.406-0.901 0.901-0.901s0.901 0.406 0.901 0.901v4.056h10.817c0.496 0 0.901 0.406 0.901 0.901s-0.406 0.901-0.901 0.901h-10.817v4.282c0 0.496-0.406 0.901-0.901 0.901zM16.135 16.676h-15.234c-0.496 0-0.901-0.406-0.901-0.901s0.406-0.901 0.901-0.901h15.234c0.496 0 0.901 0.406 0.901 0.901s-0.406 0.901-0.901 0.901zM13.972 11.944c-0.496 0-0.901-0.406-0.901-0.901v-4.282h-12.169c-0.496 0-0.901-0.406-0.901-0.901s0.406-0.901 0.901-0.901h12.169v-4.056c0-0.496 0.406-0.901 0.901-0.901s0.901 0.406 0.901 0.901v10.141c0 0.496-0.406 0.901-0.901 0.901zM31.549 6.761h-13.521c-0.496 0-0.901-0.406-0.901-0.901s0.406-0.901 0.901-0.901h13.521c0.496 0 0.901 0.406 0.901 0.901s-0.406 0.901-0.901 0.901z"></path>
</svg>
