<!-- Generated by IcoMoon.io -->
<svg version="1.1" xmlns="http://www.w3.org/2000/svg" width="33" height="32" viewBox="0 0 33 32">
<title>freizeit</title>
<path d="M6.909 31.709c-1.818 0-3.527-0.691-4.8-2-1.273-1.273-2-2.982-2-4.8v-13.636c0-0.4 0.327-0.727 0.727-0.727h24.255c0.145 0 0.291 0.036 0.4 0.109h1.127c1.782 0 3.527 0.727 4.8 2s2 2.982 2 4.8c0 1.818-0.691 3.527-2 4.8-1.273 1.273-2.982 2-4.8 2 0 0 0 0 0 0h-0.8v0.655c0 1.782-0.727 3.527-2 4.8s-2.982 2-4.8 2h-12.109c0 0 0 0 0 0zM1.564 12v12.909c0 1.418 0.545 2.764 1.564 3.782s2.364 1.564 3.782 1.564c0 0 0 0 0 0h12.109c1.418 0 2.764-0.545 3.782-1.564 0.982-0.982 1.564-2.364 1.564-3.782v-12.909h-22.8zM25.818 22.8h0.8c0 0 0 0 0 0 1.418 0 2.764-0.545 3.782-1.564s1.564-2.327 1.564-3.782c0-1.418-0.545-2.764-1.564-3.782-0.982-0.982-2.364-1.564-3.782-1.564h-0.8v10.691zM19.018 6.073c-0.4 0-0.727-0.327-0.727-0.727v-4.545c0-0.4 0.327-0.727 0.727-0.727s0.727 0.327 0.727 0.727v4.545c0 0.4-0.327 0.727-0.727 0.727zM12.982 6.073c-0.4 0-0.727-0.327-0.727-0.727v-4.545c0-0.4 0.327-0.727 0.727-0.727s0.727 0.327 0.727 0.727v4.545c0 0.4-0.327 0.727-0.727 0.727zM6.909 6.073c-0.4 0-0.727-0.327-0.727-0.727v-4.545c0-0.4 0.327-0.727 0.727-0.727s0.727 0.327 0.727 0.727v4.545c0 0.4-0.327 0.727-0.727 0.727z"></path>
</svg>
