<!-- Generated by IcoMoon.io -->
<svg version="1.1" xmlns="http://www.w3.org/2000/svg" width="32" height="32" viewBox="0 0 32 32">
<title>geschenke</title>
<path d="M28 31.8h-24c-0.44 0-0.8-0.36-0.8-0.8v-14.2h-2.2c-0.44 0-0.8-0.36-0.8-0.8v-7.52c0-0.44 0.36-0.8 0.8-0.8h4.8c-0.72-0.84-1.080-1.84-1.080-2.96 0-1.2 0.48-2.36 1.32-3.2s2-1.32 3.2-1.32c3.76 0 5.76 3.24 6.76 5.64 0.96-2.4 3-5.64 6.76-5.64 1.2 0 2.36 0.48 3.2 1.32s1.32 2 1.32 3.2c0 1.080-0.4 2.12-1.080 2.96h4.8c0.44 0 0.8 0.36 0.8 0.8v7.52c0 0.44-0.36 0.8-0.8 0.8h-2.2v14.2c0 0.44-0.36 0.8-0.8 0.8zM16.8 30.2h10.4v-13.4h-10.4v13.4zM4.8 30.2h10.4v-13.4h-10.4v13.4zM16.8 15.2h13.4v-5.92h-13.4v5.92zM1.8 15.2h13.4v-5.92h-13.4v5.92zM17.040 7.68h5.72c0.76 0 1.52-0.32 2.080-0.88s0.88-1.28 0.88-2.080c0-0.76-0.32-1.52-0.88-2.080s-1.28-0.88-2.080-0.88c-3.48 0.040-5.12 4.040-5.72 5.92zM9.24 1.8c-0.8 0-1.52 0.32-2.080 0.88s-0.88 1.32-0.88 2.080c0 0.8 0.32 1.52 0.88 2.080s1.32 0.88 2.080 0.88h5.72c-0.6-1.92-2.24-5.92-5.72-5.92z"></path>
</svg>
