<!-- Generated by IcoMoon.io -->
<svg version="1.1" xmlns="http://www.w3.org/2000/svg" width="36" height="32" viewBox="0 0 36 32">
<title>gesundheit</title>
<path d="M18.173 31.802c-0.198 0-0.395-0.079-0.553-0.237l-14.538-14.578c-3.872-3.832-3.872-10.074 0-13.906 3.832-3.832 10.074-3.832 13.906 0l1.185 1.185 1.185-1.185c0.909-0.909 1.975-1.62 3.2-2.133 3.674-1.541 7.901-0.711 10.746 2.133v0c0 0 0 0 0 0 1.857 1.857 2.884 4.346 2.884 6.953 0 2.647-1.027 5.096-2.884 6.953l-14.578 14.578c-0.158 0.158-0.356 0.237-0.553 0.237zM10.035 1.778c-2.133 0-4.227 0.79-5.847 2.41-3.24 3.239-3.24 8.454 0 11.694l13.985 13.985 13.985-13.985c1.58-1.58 2.41-3.635 2.41-5.847s-0.869-4.267-2.41-5.847v0c-2.37-2.37-5.926-3.081-9.007-1.778-1.027 0.435-1.896 1.027-2.686 1.778l-1.738 1.738c-0.158 0.158-0.356 0.237-0.553 0.237v0c-0.198 0-0.395-0.079-0.553-0.237l-1.738-1.738c-1.62-1.62-3.753-2.41-5.847-2.41z"></path>
</svg>
