<!-- Generated by IcoMoon.io -->
<svg version="1.1" xmlns="http://www.w3.org/2000/svg" width="39" height="32" viewBox="0 0 39 32">
<title>groups</title>
<path d="M37.867 31.911c-0.489 0-0.889-0.4-0.889-0.889v-3.333c0-2.622-1.778-4.933-4.356-5.6-0.489-0.133-0.756-0.622-0.622-1.067 0.133-0.489 0.622-0.756 1.067-0.622 3.333 0.844 5.644 3.867 5.689 7.289v3.333c0 0.489-0.356 0.889-0.889 0.889zM27.911 31.911c-0.489 0-0.889-0.4-0.889-0.889v-3.333c0-3.2-2.578-5.778-5.778-5.778h-13.333c-3.2 0-5.778 2.578-5.778 5.778v3.333c0 0.489-0.4 0.889-0.889 0.889s-0.889-0.4-0.889-0.889v-3.333c0-4.178 3.378-7.556 7.556-7.556h13.333c4.178 0 7.556 3.378 7.556 7.556v3.333c0 0.489-0.4 0.889-0.889 0.889zM14.578 15.2c-4.178 0-7.556-3.378-7.556-7.556s3.378-7.556 7.556-7.556 7.556 3.378 7.556 7.556-3.422 7.556-7.556 7.556zM14.578 1.867c-3.2 0-5.778 2.578-5.778 5.778s2.578 5.778 5.778 5.778 5.778-2.578 5.778-5.778-2.622-5.778-5.778-5.778zM26.222 15.022c-0.4 0-0.756-0.267-0.844-0.667-0.133-0.489 0.178-0.978 0.622-1.067 2.044-0.533 3.644-2.133 4.178-4.178 0.4-1.511 0.178-3.067-0.622-4.4s-2.044-2.267-3.556-2.667c-0.489-0.133-0.756-0.622-0.622-1.067 0.133-0.489 0.622-0.756 1.067-0.622 4.044 1.022 6.489 5.156 5.422 9.2-0.667 2.667-2.756 4.756-5.422 5.422-0.089 0.044-0.133 0.044-0.222 0.044z"></path>
</svg>
