<!-- Generated by IcoMoon.io -->
<svg version="1.1" xmlns="http://www.w3.org/2000/svg" width="32" height="32" viewBox="0 0 32 32">
<title>haushalt</title>
<path d="M25.6 31.832h-19.537c-0.909 0-1.785-0.404-2.392-1.078-0.64-0.674-0.977-1.583-0.977-2.526v-16.842c0-0.168 0.067-0.337 0.202-0.438l12.564-10.712c0.202-0.168 0.539-0.168 0.741 0l12.564 10.712c0.135 0.101 0.202 0.269 0.202 0.438v16.842c0 0.977-0.337 1.853-0.977 2.56-0.64 0.674-1.482 1.044-2.392 1.044zM3.84 11.655v16.573c0 0.674 0.236 1.314 0.674 1.785 0.404 0.472 0.977 0.707 1.549 0.707h19.537c0.573 0 1.145-0.236 1.549-0.707 0.438-0.472 0.674-1.112 0.674-1.785v-16.573l-11.992-10.206-11.992 10.206z"></path>
<path d="M0.674 14.080c-0.168 0-0.337-0.067-0.438-0.202-0.202-0.236-0.168-0.606 0.067-0.808l3.166-2.594c0.236-0.202 0.606-0.168 0.808 0.067s0.168 0.606-0.067 0.808l-3.166 2.594c-0.101 0.101-0.236 0.135-0.371 0.135zM30.989 14.080c-0.135 0-0.269-0.034-0.371-0.135l-3.166-2.594c-0.236-0.202-0.269-0.573-0.067-0.808s0.573-0.269 0.808-0.067l3.166 2.594c0.236 0.202 0.269 0.573 0.067 0.808-0.101 0.135-0.269 0.202-0.438 0.202z"></path>
</svg>
