<!-- Generated by IcoMoon.io -->
<svg version="1.1" xmlns="http://www.w3.org/2000/svg" width="31" height="32" viewBox="0 0 31 32">
<title>haustiere</title>
<path d="M19.84 32h-9.28c-2.56 0-4.8-1.458-5.867-3.804-1.031-2.347-0.604-4.978 1.138-6.898l4.658-5.156c1.209-1.351 2.951-2.098 4.764-2.098s3.52 0.782 4.729 2.133l4.622 5.156c1.707 1.92 2.098 4.551 1.067 6.862-1.031 2.347-3.271 3.804-5.831 3.804zM15.253 15.467c-1.387 0-2.738 0.604-3.698 1.636l-4.658 5.156c-1.351 1.493-1.671 3.52-0.889 5.369 0.818 1.813 2.56 2.951 4.551 2.951h9.28c1.991 0 3.733-1.138 4.551-2.951s0.498-3.876-0.818-5.333l-4.622-5.156c-0.924-1.031-2.276-1.636-3.698-1.671 0 0 0 0 0 0zM26.027 18.489c-0.391 0-0.747-0.071-1.102-0.213-0.853-0.391-1.458-1.209-1.707-2.347-0.213-1.138-0.036-2.418 0.533-3.627s1.422-2.204 2.418-2.773c0.996-0.569 2.027-0.676 2.88-0.284s1.458 1.244 1.671 2.347c0.213 1.138 0.036 2.418-0.533 3.627s-1.422 2.204-2.418 2.773c-0.533 0.32-1.173 0.498-1.742 0.498zM27.982 10.382c-0.32 0-0.711 0.107-1.102 0.32-0.747 0.427-1.422 1.209-1.849 2.133s-0.569 1.92-0.427 2.773c0.142 0.676 0.427 1.138 0.889 1.351 0.427 0.178 0.996 0.107 1.6-0.213 0.747-0.427 1.422-1.209 1.849-2.133s0.569-1.956 0.427-2.773c-0.142-0.676-0.427-1.138-0.889-1.351-0.142-0.071-0.32-0.107-0.498-0.107zM4.871 18.489c-0.569 0-1.209-0.178-1.813-0.533-0.996-0.569-1.849-1.564-2.418-2.773s-0.747-2.489-0.533-3.627c0.213-1.138 0.818-1.991 1.707-2.347 0.853-0.391 1.884-0.284 2.88 0.284s1.849 1.564 2.418 2.773c0.569 1.209 0.747 2.489 0.533 3.627s-0.818 1.956-1.671 2.347c-0.356 0.178-0.711 0.249-1.102 0.249zM2.916 10.382c-0.178 0-0.356 0.036-0.498 0.107-0.427 0.178-0.747 0.676-0.889 1.351-0.142 0.818 0 1.849 0.427 2.773s1.102 1.707 1.849 2.133c0.604 0.356 1.173 0.427 1.6 0.213 0.427-0.178 0.747-0.676 0.889-1.351 0.178-0.818 0-1.849-0.427-2.773v0c-0.427-0.924-1.102-1.707-1.849-2.133-0.391-0.213-0.747-0.32-1.102-0.32zM20.444 11.236c-1.102 0-2.133-0.569-2.88-1.636-0.782-1.067-1.209-2.489-1.209-3.982s0.427-2.916 1.209-3.982c0.782-1.067 1.778-1.636 2.88-1.636s2.133 0.569 2.88 1.636c0.782 1.067 1.209 2.489 1.209 3.982s-0.427 2.916-1.209 3.982c-0.747 1.067-1.778 1.636-2.88 1.636zM20.444 1.422c-0.64 0-1.244 0.391-1.742 1.067-0.569 0.818-0.924 1.956-0.924 3.129s0.356 2.347 0.924 3.129c0.498 0.676 1.102 1.067 1.742 1.067s1.244-0.391 1.742-1.067c0.604-0.818 0.924-1.956 0.924-3.129s-0.356-2.347-0.924-3.129c-0.498-0.676-1.102-1.067-1.742-1.067zM10.133 11.236c-1.102 0-2.133-0.569-2.88-1.636-0.782-1.067-1.209-2.489-1.209-3.982s0.427-2.916 1.209-3.982c0.782-1.067 1.778-1.636 2.88-1.636s2.133 0.569 2.88 1.636c0.782 1.067 1.209 2.489 1.209 3.982s-0.427 2.916-1.209 3.982c-0.747 1.067-1.778 1.636-2.88 1.636zM10.133 1.422c-0.64 0-1.244 0.391-1.742 1.067-0.569 0.818-0.924 1.956-0.924 3.129s0.356 2.347 0.924 3.129c0.498 0.676 1.102 1.067 1.742 1.067s1.244-0.391 1.742-1.067c0.604-0.818 0.924-1.956 0.924-3.129s-0.356-2.347-0.924-3.129c-0.498-0.676-1.102-1.067-1.742-1.067z"></path>
</svg>
