<!-- Generated by IcoMoon.io -->
<svg version="1.1" xmlns="http://www.w3.org/2000/svg" width="32" height="32" viewBox="0 0 32 32">
<title>hobby</title>
<path d="M31 27c-0.56 0-1-0.44-1-1v-10c0-3.72-1.44-7.24-4.12-9.88-5.44-5.44-14.36-5.44-19.8 0-2.64 2.64-4.080 6.16-4.080 9.88v10c0 0.56-0.44 1-1 1s-1-0.44-1-1v-10c0-4.28 1.68-8.28 4.68-11.32 6.24-6.24 16.4-6.24 22.64 0 3 3.040 4.68 7.040 4.68 11.32v10c0 0.56-0.44 1-1 1z"></path>
<path d="M27.68 32h-1.68c-2.4 0-4.32-1.96-4.32-4.32v-5c0-2.4 1.96-4.32 4.32-4.32h5c0.56 0 1 0.44 1 1v8.32c0 2.36-1.96 4.32-4.32 4.32zM26 20.32c-1.28 0-2.32 1.040-2.32 2.32v5c0 1.28 1.040 2.32 2.32 2.32h1.68c0.64 0 1.2-0.24 1.64-0.68s0.68-1.040 0.68-1.64c0 0 0 0 0 0v-7.32h-4zM6 32h-1.68c-2.36 0-4.32-1.96-4.32-4.32v-8.36c0-0.56 0.44-1 1-1h5c2.4 0 4.32 1.96 4.32 4.32v5c0 2.4-1.92 4.36-4.32 4.36zM2 20.32v7.32c0 1.28 1.040 2.32 2.32 2.32h1.68c1.28 0 2.32-1.040 2.32-2.32v-4.96c0-1.28-1.040-2.32-2.32-2.32h-4zM1 27.68v0 0z"></path>
</svg>
