<!-- Generated by IcoMoon.io -->
<svg version="1.1" xmlns="http://www.w3.org/2000/svg" width="29" height="32" viewBox="0 0 29 32">
<title>home</title>
<path d="M3.88 31.8c-1 0-1.96-0.4-2.68-1.12s-1.12-1.68-1.12-2.68v-16.48c0-0.24 0.12-0.48 0.32-0.64l13.52-10.52c0.28-0.24 0.68-0.24 1 0l13.48 10.52c0.2 0.16 0.32 0.4 0.32 0.64v16.48c0 2.080-1.72 3.8-3.8 3.8h-21.040c0 0 0 0 0 0zM1.68 11.88v16.12c0 0.6 0.24 1.16 0.64 1.56s0.96 0.64 1.56 0.64c0 0 0 0 0 0h21c0.6 0 1.16-0.24 1.56-0.64s0.64-0.96 0.64-1.56v-16.12l-12.68-9.88-12.72 9.88z"></path>
<path d="M18.88 31.8c-0.44 0-0.8-0.36-0.8-0.8v-14.2h-7.36v14.2c0 0.44-0.36 0.8-0.8 0.8s-0.8-0.36-0.8-0.8v-15c0-0.44 0.36-0.8 0.8-0.8h9c0.44 0 0.8 0.36 0.8 0.8v15c-0.040 0.44-0.36 0.8-0.84 0.8z"></path>
</svg>
