<!-- Generated by IcoMoon.io -->
<svg version="1.1" xmlns="http://www.w3.org/2000/svg" width="33" height="32" viewBox="0 0 33 32">
<title>lebensmittel</title>
<path d="M28.278 31.896v0c-1.183 0-2.157-0.974-2.157-2.157s0.974-2.157 2.157-2.157c1.183 0 2.157 0.974 2.157 2.157s-0.974 2.157-2.157 2.157zM28.278 28.974c-0.417 0-0.765 0.348-0.765 0.765s0.348 0.765 0.765 0.765v0c0.417 0 0.765-0.348 0.765-0.765s-0.348-0.765-0.765-0.765zM12.348 31.896c-1.183 0-2.157-0.974-2.157-2.157s0.974-2.157 2.157-2.157c1.183 0 2.157 0.974 2.157 2.157s-0.974 2.157-2.157 2.157zM12.348 28.974c-0.417 0-0.765 0.348-0.765 0.765s0.348 0.765 0.765 0.765 0.765-0.348 0.765-0.765c0-0.417-0.348-0.765-0.765-0.765zM13.252 23.2c-0.8 0-1.6-0.278-2.226-0.8-0.661-0.522-1.113-1.287-1.287-2.087l-2.435-12.139c0 0 0-0.035 0-0.035l-1.322-6.678h-5.217c-0.383 0-0.696-0.313-0.696-0.696s0.313-0.696 0.696-0.696h5.809c0.348 0 0.626 0.243 0.696 0.557l1.287 6.678h24.070c0.209 0 0.417 0.104 0.522 0.243 0.139 0.174 0.174 0.383 0.139 0.557l-2.33 12.174c-0.174 0.835-0.626 1.565-1.287 2.122-0.661 0.522-1.496 0.8-2.33 0.8h-14.017c0 0-0.035 0-0.070 0zM8.835 8.696l2.296 11.339c0.104 0.522 0.383 0.974 0.765 1.287 0.417 0.313 0.904 0.487 1.426 0.487h14.087c0.522 0 1.043-0.174 1.426-0.487 0.417-0.313 0.696-0.765 0.765-1.287l2.191-11.339h-22.957z"></path>
</svg>
