<!-- Generated by IcoMoon.io -->
<svg version="1.1" xmlns="http://www.w3.org/2000/svg" width="33" height="32" viewBox="0 0 33 32">
<title>manuell</title>
<path d="M1.020 32c-0.232 0-0.464-0.093-0.649-0.278-0.232-0.232-0.325-0.557-0.232-0.881l1.762-6.957c0.046-0.186 0.139-0.325 0.232-0.417l21.751-21.751c1.345-1.345 3.293-1.716 5.009-1.020 0.557 0.232 1.067 0.557 1.484 1.020 0.417 0.417 0.742 0.928 1.020 1.484 0.232 0.557 0.371 1.159 0.371 1.762s-0.139 1.206-0.371 1.762c-0.232 0.557-0.557 1.067-0.974 1.484l-21.751 21.797c-0.139 0.139-0.278 0.186-0.417 0.232l-6.957 1.762c-0.093 0-0.185 0-0.278 0zM3.617 24.58l-1.299 5.241 5.194-1.299 21.565-21.565c0.232-0.278 0.464-0.557 0.603-0.881s0.186-0.696 0.186-1.067-0.046-0.742-0.186-1.067c-0.139-0.325-0.325-0.649-0.603-0.881-0.232-0.232-0.557-0.464-0.881-0.603-1.020-0.417-2.226-0.186-3.014 0.603 0 0 0 0 0 0l-21.565 21.519zM24.533 2.365v0 0zM32.371 32h-15.675c-0.51 0-0.928-0.417-0.928-0.928s0.417-0.928 0.928-0.928h15.675c0.51 0 0.928 0.417 0.928 0.928s-0.417 0.928-0.928 0.928z"></path>
</svg>
