<!-- Generated by IcoMoon.io -->
<svg version="1.1" xmlns="http://www.w3.org/2000/svg" width="29" height="32" viewBox="0 0 29 32">
<title>notifications</title>
<path d="M14.582 31.797c-1.377 0-2.633-0.729-3.322-1.904-0.243-0.405-0.081-0.891 0.284-1.094 0.405-0.243 0.891-0.081 1.094 0.284 0.405 0.689 1.134 1.094 1.944 1.094s1.539-0.446 1.944-1.094c0.243-0.405 0.729-0.527 1.094-0.284 0.405 0.243 0.527 0.729 0.284 1.094-0.689 1.175-1.944 1.904-3.322 1.904zM28.273 24.385h-27.382c-0.365 0-0.689-0.243-0.77-0.567-0.122-0.324 0.041-0.729 0.324-0.891 0.040-0.041 4.213-2.997 4.213-13.003 0-5.468 4.456-9.924 9.924-9.924s9.924 4.456 9.924 9.924c0 0 0 0 0 0 0 10.086 4.172 12.962 4.213 13.003 0.284 0.203 0.446 0.567 0.324 0.891-0.122 0.365-0.446 0.567-0.77 0.567zM2.835 22.765h23.494c-1.458-1.863-3.443-5.752-3.443-12.841v0c0-4.577-3.727-8.304-8.304-8.304s-8.304 3.727-8.304 8.304c0 7.129-1.985 10.977-3.443 12.841z"></path>
</svg>
