<!-- Generated by IcoMoon.io -->
<svg version="1.1" xmlns="http://www.w3.org/2000/svg" width="28" height="32" viewBox="0 0 28 32">
<title>profile</title>
<path d="M27.556 31.911c-0.489 0-0.889-0.4-0.889-0.889v-3.333c0-3.2-2.578-5.778-5.778-5.778h-13.333c-3.2 0-5.778 2.578-5.778 5.778v3.333c0 0.489-0.4 0.889-0.889 0.889s-0.889-0.4-0.889-0.889v-3.333c0-4.178 3.378-7.556 7.556-7.556h13.333c4.178 0 7.556 3.378 7.556 7.556v3.333c0 0.489-0.4 0.889-0.889 0.889zM14.222 15.2c-4.178 0-7.556-3.378-7.556-7.556s3.378-7.556 7.556-7.556 7.556 3.378 7.556 7.556-3.378 7.556-7.556 7.556zM14.222 1.867c-3.2 0-5.778 2.578-5.778 5.778s2.578 5.778 5.778 5.778c3.2 0 5.778-2.578 5.778-5.778s-2.578-5.778-5.778-5.778z"></path>
</svg>
