<!-- Generated by IcoMoon.io -->
<svg version="1.1" xmlns="http://www.w3.org/2000/svg" width="36" height="32" viewBox="0 0 36 32">
<title>reisen</title>
<path d="M31.311 31.797c0 0 0 0 0 0h-26.977c-2.309 0-4.213-1.863-4.213-4.172v-16.891c0-1.134 0.446-2.187 1.215-2.957 0.81-0.81 1.823-1.215 2.957-1.215 0 0 0 0 0 0h27.018c2.309 0 4.172 1.863 4.172 4.172v16.891c0 1.134-0.446 2.187-1.215 2.957s-1.823 1.215-2.957 1.215zM4.334 8.182c-1.418 0-2.552 1.134-2.552 2.552v16.891c0 1.418 1.134 2.552 2.552 2.552h27.018c1.418 0 2.552-1.134 2.552-2.552v-16.891c0-1.418-1.134-2.552-2.552-2.552h-27.018z"></path>
<path d="M24.587 32c-0.446 0-0.81-0.365-0.81-0.81v-27.018c0-0.689-0.284-1.337-0.77-1.823-0.486-0.446-1.134-0.729-1.823-0.729h-6.724c-1.418 0-2.552 1.134-2.552 2.552v27.018c0 0.446-0.365 0.81-0.81 0.81s-0.81-0.365-0.81-0.81v-27.018c-0.040-2.309 1.863-4.172 4.172-4.172h6.765c1.134 0 2.187 0.446 2.957 1.215 0.81 0.81 1.215 1.823 1.215 2.957v27.018c0 0.446-0.365 0.81-0.81 0.81z"></path>
</svg>
