<!-- Generated by IcoMoon.io -->
<svg version="1.1" xmlns="http://www.w3.org/2000/svg" width="43" height="32" viewBox="0 0 43 32">
<title>schulden</title>
<path d="M23.766 32c-0.429 0-0.898-0.078-1.327-0.273l-14.283-6.595c-0.39-0.195-0.546-0.663-0.39-1.054 0.195-0.39 0.624-0.546 1.054-0.39l14.322 6.595c0.585 0.273 1.249 0.156 1.717-0.273l1.171-1.093c0.078-0.078 0.117-0.117 0.156-0.195l5.776-7.493c0.351-0.468 0.546-0.976 0.624-1.561l0.195-1.834-12.605-5.854c-0.429-0.195-0.976-0.195-1.405 0.039l-3.395 1.834c-1.132 0.624-2.576 0.429-3.512-0.507v0c-0.819-0.819-1.054-1.99-0.702-3.044 0.234-0.624 0.663-1.132 1.21-1.483l4.8-2.927c0.351-0.195 0.741-0.351 1.132-0.429l10.693-1.678c0.429-0.078 0.82 0.234 0.898 0.663s-0.234 0.819-0.663 0.898l-10.693 1.678c-0.195 0.039-0.39 0.117-0.546 0.195l-4.8 2.927c-0.234 0.156-0.468 0.39-0.546 0.663-0.156 0.468-0.039 1.015 0.312 1.366v0c0.429 0.429 1.132 0.546 1.639 0.234l3.395-1.834c0.859-0.468 1.912-0.507 2.81-0.078l13.151 6.088c0.273 0.117 0.585 0.156 0.898 0.117l1.6-0.234c0.429-0.078 0.819 0.234 0.898 0.663s-0.234 0.82-0.663 0.898l-1.561 0.312c-0.273 0.039-0.546 0.039-0.819 0l-0.156 1.483c-0.078 0.859-0.429 1.678-0.937 2.341l-5.776 7.532c-0.078 0.117-0.195 0.234-0.351 0.39l-1.21 1.093c-0.585 0.546-1.327 0.82-2.107 0.82zM4.098 25.522c-0.234 0-0.468-0.039-0.702-0.078l-0.702-0.156c-0.82-0.195-1.483-0.702-1.951-1.405-0.429-0.702-0.585-1.561-0.39-2.341l3.161-12.293c0.234-0.859 0.819-1.6 1.6-1.99s1.717-0.468 2.537-0.156l0.702 0.273c1.483 0.585 2.302 2.146 1.912 3.707l-3.161 12.098c-0.312 1.405-1.6 2.341-3.005 2.341zM1.912 21.815v0.039c-0.078 0.39-0.039 0.82 0.195 1.171s0.546 0.585 0.976 0.702l0.702 0.156c0.819 0.195 1.678-0.312 1.873-1.132l3.161-12.098c0.195-0.78-0.195-1.561-0.976-1.834l-0.702-0.273c-0.429-0.156-0.859-0.117-1.288 0.078-0.39 0.195-0.702 0.546-0.78 1.015l-2.849 11.044-0.312 1.132zM39.493 17.093c-1.093 0-2.146-0.585-2.732-1.561l-6.049-10.576c-0.39-0.741-0.468-1.561-0.234-2.381 0.234-0.78 0.78-1.444 1.522-1.834l0.585-0.351c0.741-0.39 1.6-0.429 2.38-0.156s1.444 0.82 1.795 1.561l0.507 1.015c0.195 0.39 0.039 0.859-0.351 1.054s-0.859 0.039-1.054-0.351l-0.507-1.015c-0.195-0.39-0.507-0.663-0.898-0.78s-0.819-0.117-1.21 0.078h-0.039l-0.507 0.273c-0.351 0.195-0.624 0.507-0.741 0.937-0.117 0.39-0.078 0.82 0.117 1.171l0.039 0.039 6.010 10.498c0.429 0.702 1.327 0.976 2.068 0.624l0.663-0.351c0.39-0.195 0.663-0.507 0.78-0.898s0.117-0.819-0.078-1.21l-2.459-4.8c-0.195-0.39-0.039-0.859 0.351-1.054s0.859-0.039 1.054 0.351l2.459 4.8c0.39 0.741 0.468 1.6 0.195 2.42-0.273 0.78-0.819 1.444-1.561 1.834l-0.663 0.351c-0.507 0.195-0.976 0.312-1.444 0.312z"></path>
</svg>
