<!-- Generated by IcoMoon.io -->
<svg version="1.1" xmlns="http://www.w3.org/2000/svg" width="32" height="32" viewBox="0 0 32 32">
<title>search</title>
<path d="M31.022 31.911c-0.222 0-0.444-0.089-0.622-0.267l-6.667-6.667c-2.489 2.222-5.822 3.556-9.422 3.556-7.822 0-14.222-6.4-14.222-14.222s6.4-14.222 14.222-14.222c7.822 0 14.222 6.4 14.222 14.222 0 3.6-1.333 6.889-3.556 9.422l6.622 6.622c0.356 0.356 0.356 0.889 0 1.244-0.133 0.222-0.356 0.311-0.578 0.311zM14.311 1.867c-6.844 0-12.444 5.6-12.444 12.444s5.6 12.444 12.444 12.444c3.378 0 6.444-1.378 8.711-3.556 0.044-0.044 0.044-0.044 0.089-0.089s0.044-0.044 0.089-0.089c2.222-2.267 3.556-5.333 3.556-8.711 0-6.844-5.556-12.444-12.444-12.444z"></path>
</svg>
