<!-- Generated by IcoMoon.io -->
<svg version="1.1" xmlns="http://www.w3.org/2000/svg" width="26" height="32" viewBox="0 0 26 32">
<title>share_ios</title>
<path d="M3.8 31.8c-1 0-1.96-0.4-2.68-1.12s-1.12-1.68-1.12-2.68v-12c0-0.44 0.36-0.8 0.8-0.8s0.8 0.36 0.8 0.8v12c0 0.6 0.24 1.16 0.64 1.56s0.96 0.64 1.56 0.64c0 0 0 0 0 0h18c0.6 0 1.16-0.24 1.56-0.64s0.64-0.96 0.64-1.56v-12c0-0.44 0.36-0.8 0.8-0.8s0.8 0.36 0.8 0.8v12c0 1-0.4 1.96-1.12 2.68s-1.68 1.12-2.68 1.12h-18c0 0 0 0 0 0zM12.8 21.28c-0.44 0-0.8-0.36-0.8-0.8v-17.56l-4.64 4.64c-0.32 0.32-0.8 0.32-1.12 0s-0.32-0.8 0-1.12l6-6c0 0 0 0 0 0s0 0 0 0c0.080-0.080 0.16-0.12 0.24-0.16 0.2-0.080 0.44-0.080 0.6 0 0.080 0.040 0.16 0.080 0.24 0.16 0 0 0 0 0 0s0 0 0 0 0 0 0 0l6 6c0.32 0.32 0.32 0.8 0 1.12s-0.8 0.32-1.12 0l-4.6-4.64v17.56c0 0.48-0.36 0.8-0.8 0.8z"></path>
</svg>
