<!-- Generated by IcoMoon.io -->
<svg version="1.1" xmlns="http://www.w3.org/2000/svg" width="29" height="32" viewBox="0 0 29 32">
<title>share_android</title>
<path d="M23.4 31.8c-2.92 0-5.28-2.36-5.28-5.28 0-0.68 0.12-1.36 0.36-1.96l-8.96-5.2c-0.96 1.2-2.44 1.96-4.12 1.96-2.92-0.040-5.32-2.4-5.32-5.32s2.36-5.28 5.28-5.28c1.68 0 3.16 0.76 4.12 1.96l8.96-5.24c-0.24-0.6-0.36-1.28-0.36-1.96 0-2.92 2.36-5.28 5.28-5.28s5.28 2.36 5.28 5.28-2.32 5.32-5.24 5.32c-1.68 0-3.16-0.76-4.12-1.96l-8.96 5.2c0.24 0.6 0.36 1.28 0.36 1.96s-0.12 1.36-0.36 1.96l8.96 5.2c0.96-1.2 2.44-1.96 4.12-1.96 2.92 0 5.28 2.36 5.28 5.28s-2.36 5.32-5.28 5.32zM20.16 24.76c-0.28 0.52-0.44 1.12-0.44 1.76 0 2.040 1.64 3.68 3.68 3.68s3.68-1.64 3.68-3.68-1.64-3.72-3.68-3.72c-1.32 0-2.48 0.68-3.12 1.72 0 0.040-0.040 0.080-0.040 0.12-0.040 0.040-0.080 0.080-0.080 0.12zM5.4 12.32c-2.040 0-3.68 1.64-3.68 3.68s1.64 3.68 3.68 3.68c1.32 0 2.52-0.72 3.16-1.8 0 0 0-0.040 0.040-0.040 0 0 0.040-0.040 0.040-0.040 0.32-0.52 0.48-1.16 0.48-1.8s-0.16-1.28-0.48-1.8c0 0-0.040-0.040-0.040-0.040s-0.040-0.040-0.040-0.040c-0.64-1.12-1.84-1.8-3.16-1.8zM20.24 7.4c0.64 1.080 1.84 1.8 3.16 1.8 2.040 0 3.68-1.64 3.68-3.68s-1.64-3.68-3.68-3.68-3.68 1.64-3.68 3.68c0 0.64 0.16 1.28 0.48 1.8 0 0 0.040 0.040 0.040 0.040-0.040 0.040 0 0.040 0 0.040z"></path>
</svg>
