<!-- Generated by IcoMoon.io -->
<svg version="1.1" xmlns="http://www.w3.org/2000/svg" width="32" height="32" viewBox="0 0 32 32">
<title>sonstiges</title>
<path d="M16.565 31.699c-1.016 0-2.033-0.414-2.748-1.129l-13.478-13.478c-0.151-0.151-0.226-0.339-0.226-0.527v-15.699c0-0.414 0.339-0.753 0.753-0.753h15.699c0.188 0 0.376 0.075 0.527 0.226l13.478 13.478c0.715 0.753 1.129 1.694 1.129 2.748 0 1.016-0.414 2.033-1.129 2.748 0 0 0 0 0 0l-11.256 11.256c-0.376 0.376-0.791 0.64-1.28 0.828-0.452 0.188-0.941 0.301-1.468 0.301 0 0 0 0 0 0zM1.619 16.264l13.252 13.252c0.452 0.452 1.054 0.715 1.694 0.715 0 0 0 0 0 0 0.301 0 0.64-0.075 0.904-0.188 0.301-0.113 0.565-0.301 0.791-0.527l11.256-11.256c0.452-0.452 0.678-1.054 0.678-1.694s-0.264-1.242-0.678-1.694l-13.252-13.252h-14.645v14.645zM30.042 18.786v0 0zM8.734 9.487c-0.414 0-0.753-0.339-0.753-0.753s0.339-0.753 0.753-0.753v0c0.414 0 0.753 0.339 0.753 0.753s-0.339 0.753-0.753 0.753z"></path>
</svg>
