<!-- Generated by IcoMoon.io -->
<svg version="1.1" xmlns="http://www.w3.org/2000/svg" width="35" height="32" viewBox="0 0 35 32">
<title>technologie</title>
<path d="M24.28 31.8h-13.36c-0.44 0-0.8-0.36-0.8-0.8s0.36-0.8 0.8-0.8h5.88v-5.080h-12.52c-2.28 0-4.16-1.84-4.16-4.12v-16.68c0-1.12 0.44-2.16 1.2-2.92 0.8-0.8 1.8-1.2 2.92-1.2 0 0 0 0 0 0h26.68c2.28 0 4.12 1.84 4.12 4.12v16.68c0 1.12-0.44 2.16-1.2 2.92-0.8 0.8-1.8 1.2-2.92 1.2 0 0 0 0 0 0h-12.52v5.080h5.88c0.44 0 0.8 0.36 0.8 0.8s-0.36 0.8-0.8 0.8zM17.6 23.52h13.32c1.4 0 2.52-1.12 2.52-2.52v-16.68c0-1.4-1.12-2.52-2.52-2.52h-26.64c-1.4 0-2.52 1.12-2.52 2.52v16.68c0 1.4 1.12 2.52 2.52 2.52h13.32z"></path>
</svg>
