<!-- Generated by IcoMoon.io -->
<svg version="1.1" xmlns="http://www.w3.org/2000/svg" width="38" height="32" viewBox="0 0 38 32">
<title>transport</title>
<path d="M30.040 31.8c-2.72 0-4.96-2.24-4.96-4.96 0-1.28 0.48-2.48 1.32-3.36h-14.4c0.8 0.88 1.32 2.080 1.32 3.36 0 2.72-2.24 4.96-4.96 4.96s-4.96-2.24-4.96-4.96c0-1.28 0.52-2.48 1.32-3.36h-3.84c-0.44 0-0.8-0.36-0.8-0.8v-21.68c0-0.44 0.36-0.8 0.8-0.8h25c0.44 0 0.8 0.36 0.8 0.8v7.52h5.88c0.2 0 0.4 0.080 0.56 0.24l5 5c0.16 0.16 0.24 0.36 0.24 0.56v8.32c0 0.44-0.36 0.8-0.8 0.8h-3.84c0.8 0.88 1.32 2.080 1.32 3.36-0.040 2.76-2.28 5-5 5zM30.040 23.48c-1.84 0-3.36 1.52-3.36 3.36s1.52 3.36 3.36 3.36c1.84 0 3.36-1.52 3.36-3.36 0-1.88-1.52-3.36-3.36-3.36zM8.36 23.48c-1.84 0-3.36 1.52-3.36 3.36s1.52 3.36 3.36 3.36c1.84 0 3.36-1.52 3.36-3.36 0-1.88-1.48-3.36-3.36-3.36zM30.040 21.88h6.72v-7.2l-4.56-4.56h-5.52v11.72h3.36zM8.36 21.88h16.72v-20.080h-23.4v20.080h6.68z"></path>
</svg>
