<!-- Generated by IcoMoon.io -->
<svg version="1.1" xmlns="http://www.w3.org/2000/svg" width="171" height="32" viewBox="0 0 171 32">
<title>untitled</title>
<path d="M85.333 26.133c5.6 0 10.133-4.533 10.133-10.133s-4.533-10.133-10.133-10.133c-5.6 0-10.133 4.533-10.133 10.133s4.533 10.133 10.133 10.133zM155.2 26.133c5.6-0.267 10.133-4.533 10.133-10.133s-4.533-10.133-10.133-10.133c-5.6 0-10.133 4.533-10.133 10.133s4.8 10.133 10.133 10.133zM15.467 26.133c5.6 0 10.133-4.533 10.133-10.133s-4.533-10.133-10.133-10.133c0 0 0 0 0 0-5.6 0-10.133 4.533-10.133 10.133s4.533 10.133 10.133 10.133z"></path>
<path d="M155.2 31.467c-8.533 0-15.467-6.933-15.467-15.467s6.933-15.467 15.467-15.467v0c4 0 8 1.6 10.933 4.533s4.533 6.933 4.533 10.933c0 8.533-6.933 15.467-15.467 15.467zM155.2 11.2c0 0 0 0 0 0-2.667 0-4.8 2.133-4.8 4.8s2.133 4.8 4.8 4.8c2.667 0 4.8-2.133 4.8-4.8 0-1.333-0.533-2.4-1.333-3.2s-2.133-1.6-3.467-1.6zM85.333 31.467c-8.533 0-15.467-6.933-15.467-15.2 0-4 1.6-8 4.533-10.933 2.933-3.2 6.933-4.8 10.933-4.8 0 0 0 0 0 0 4 0 8 1.6 10.933 4.533s4.533 6.933 4.533 10.933c0 8.533-6.933 15.467-15.467 15.467zM85.333 11.2v0c-1.333 0-2.4 0.533-3.2 1.333s-1.333 2.133-1.333 3.2c0 2.667 2.133 4.8 4.8 4.8s4.8-2.133 4.8-4.8c0-1.333-0.533-2.4-1.333-3.2-1.333-0.8-2.4-1.333-3.733-1.333zM15.467 31.467c-8.533 0-15.467-6.933-15.467-15.467 0-4 1.6-8 4.533-10.933s6.667-4.533 10.933-4.533c0 0 0 0 0 0 8.533 0 15.2 6.933 15.467 15.2 0 4-1.6 8-4.533 10.933-3.2 3.2-6.933 4.8-10.933 4.8zM15.467 11.2v0c-2.667 0-4.8 2.133-4.8 4.8s2.133 4.8 4.8 4.8c1.333 0 2.4-0.533 3.2-1.333 0.8-1.067 1.333-2.133 1.333-3.467s-0.533-2.4-1.333-3.2c-0.8-1.067-2.133-1.6-3.2-1.6z"></path>
</svg>
