<!-- Generated by IcoMoon.io -->
<svg version="1.1" xmlns="http://www.w3.org/2000/svg" width="32" height="32" viewBox="0 0 32 32">
<title>upload</title>
<path d="M27.689 31.911c0 0 0 0 0 0h-23.333c-1.111 0-2.222-0.444-2.978-1.244-0.8-0.8-1.244-1.867-1.244-2.978v-6.667c0-0.489 0.4-0.889 0.889-0.889s0.889 0.4 0.889 0.889v6.667c0 0.667 0.267 1.244 0.711 1.733 0.444 0.444 1.067 0.711 1.733 0.711h23.333c0 0 0 0 0 0 0.622 0 1.289-0.267 1.733-0.711s0.711-1.067 0.711-1.733v-6.667c0-0.489 0.4-0.889 0.889-0.889s0.889 0.4 0.889 0.889v6.667c0 1.111-0.444 2.178-1.244 2.978-0.8 0.756-1.867 1.244-2.978 1.244zM16 21.867c-0.489 0-0.889-0.4-0.889-0.889v-17.822l-6.8 6.8c-0.356 0.356-0.889 0.356-1.244 0s-0.356-0.889 0-1.244l8.311-8.356c0 0 0 0 0 0s0 0 0 0c0.089-0.089 0.178-0.133 0.267-0.178 0.222-0.089 0.489-0.089 0.667 0 0.089 0.044 0.178 0.089 0.267 0.178 0 0 0 0 0 0s0 0 0 0 0 0 0 0l8.311 8.311c0.356 0.356 0.356 0.889 0 1.244s-0.889 0.356-1.244 0l-6.756-6.756v17.867c0 0.489-0.4 0.844-0.889 0.844z"></path>
</svg>
